<?xml version="1.0" encoding="utf-8"?>
<!-- Generator: Adobe Illustrator 16.0.0, SVG Export Plug-In . SVG Version: 6.00 Build 0)  -->
<!DOCTYPE svg PUBLIC "-//W3C//DTD SVG 1.1//EN" "http://www.w3.org/Graphics/SVG/1.1/DTD/svg11.dtd">
<svg version="1.1" id="Layer_1" xmlns="http://www.w3.org/2000/svg" xmlns:xlink="http://www.w3.org/1999/xlink" x="0px" y="0px"
	 width="24px" height="24px" viewBox="0 0 24 24" enable-background="new 0 0 24 24" xml:space="preserve">
<g>
	<path d="M6.966,6.062C6.929,5.94,7.075,5.732,7.146,5.745c0.07,0.012,0.027,0.414,0.027,0.715c-0.061,0.178,0,0.856,0,0.991
		c0,0.134,0.085,0.426,0.134,0.523c0.048,0.098,0.304,0.347,0.304,0.347s0.001-0.013,0.005-0.029C7.703,8.424,7.807,8.561,7.925,8.7
		c0,0.075,0,0.14,0.003,0.178C7.94,9.037,8.16,9.108,8.16,9.108C8.141,9.065,8.13,9,8.124,8.922C8.165,8.965,8.202,9.007,8.246,9.05
		C8.263,9.101,8.28,9.151,8.298,9.2l-0.04-0.047l0.391,2.142l0.642-0.247c0.701,0.902,1.62,1.474,2.744,1.474
		c1.066,0,1.965-0.547,2.666-1.42l0.503,0.193l0.26-1.421c0.138-0.287,0.263-0.59,0.372-0.904c0.489-0.506,0.759-0.965,0.891-1.371
		c0.045-0.03,0.086-0.076,0.109-0.172c0.026-0.11,0.016-0.245-0.005-0.385c0.008-0.222-0.024-0.419-0.077-0.592
		c0.021-0.219,0.202-0.304,0.313-0.438c0.122-0.146,0.061-0.292,0-0.401c-0.061-0.11-0.085-0.244-0.097-0.361
		c-0.013-0.116-0.146-0.517-0.146-0.517s0.073,0.086,0.244,0.305c0-0.146-0.122-0.463-0.231-0.585s-0.122-0.412-0.122-0.412
		s-0.037-0.088,0.122,0c-0.061-0.131-0.183-0.197-0.183-0.197s0.085-0.231,0.183-0.463c0-0.354-0.463-0.658-0.463-0.658
		s-0.316-0.755-0.731-1.023c-0.414-0.268-0.841-0.316-0.841-0.316s-0.134-0.122,0.11-0.065c-0.11-0.176-0.597-0.35-0.597-0.35
		s0,0,0.5,0.062c-0.183-0.207-1.17-0.342-1.328-0.309c0-0.467-0.438-0.532-0.597-0.613c-0.158-0.08-0.305-0.139-0.561-0.09
		s0,0.414-0.073,0.396c-0.073-0.018-0.219-0.25-0.365-0.295c-0.146-0.046-0.256,0.154-0.256,0.154S11.535,0.2,11.438,0.164
		c-0.305-0.122-0.78,0.036-0.841,0.073c-0.061,0.036-0.195,0.268-0.341,0.231c-0.146-0.037-0.841,0-0.841,0S9.378,0.518,9.671,0.529
		c-0.512,0.037-1.048,0.5-1.048,0.5s0.171-0.037,0.561-0.085C9,0.968,8.599,1.151,8.318,1.419c0.098-0.085,0.415-0.194,0.269-0.102
		C8.44,1.409,8.233,1.821,8.233,1.821s-0.5,0.316-0.634,0.561C7.465,2.625,7.405,3.052,7.27,3.283
		C7.136,3.515,7.002,4.051,6.9,4.348c-0.102,0.297,0.029,0.91,0.059,1.044C6.991,5.525,6.807,5.684,6.966,6.062z M14.302,5.16
		c0.049,0.127,0.042,0.29-0.004,0.469c-0.159,0.007-0.375,0.02-0.606,0.047C13.91,5.497,14.118,5.32,14.302,5.16z M12.808,4.273
		l-0.105,0.471c-0.314,0.322-0.944,1.1-0.997,1.409c0.304-0.433,1.169-0.847,1.169-0.847s0.037,0.194-0.573,0.743
		c0.268-0.049,0.865-0.549,1.146-0.8c-0.025,0.086-0.139,0.255-0.468,0.557c-0.335,0.095-0.606,0.238-0.66,0.455
		c-0.258-0.035-0.475-0.038-0.648-0.023c-0.059-0.183-0.277-0.311-0.554-0.401c0.215-0.156,0.411-0.296,0.514-0.372
		C11.825,5.322,12.397,4.669,12.808,4.273z M11.041,4.778c0.216-0.043,0.419-0.1,0.608-0.164c-0.16,0.237-0.402,0.52-0.516,0.636
		c-0.097,0.1-0.235,0.282-0.381,0.493c-0.144-0.028-0.291-0.05-0.433-0.066C10.46,5.438,10.75,5.078,11.041,4.778z M10.097,5.489
		c0,0-0.015,0.069-0.032,0.162c-0.013-0.001-0.027-0.002-0.04-0.003C10.07,5.555,10.097,5.489,10.097,5.489z M9.64,8.055
		c0.055,0,0.111-0.003,0.169-0.009c1.096-0.115,1.56-0.827,1.75-1.303c0.075-0.014,0.17-0.023,0.286-0.026
		c-0.127,0.094-0.261,0.19-0.408,0.296c0.201-0.004,0.469-0.11,0.766-0.276c0.078,0.009,0.161,0.021,0.25,0.038
		c0.071,0.172,0.179,0.37,0.335,0.559c-0.028,0.01-0.056,0.021-0.084,0.029c0.041,0.01,0.083,0.017,0.127,0.021
		c0.28,0.315,0.707,0.595,1.358,0.663c0.058,0.006,0.115,0.009,0.169,0.009c0.254,0,0.459-0.065,0.623-0.171
		c0.064-0.025,0.129-0.057,0.186-0.087c-0.487,2.061-1.596,3.756-3.133,3.756S9.389,9.859,8.902,7.799
		C9.082,7.955,9.323,8.055,9.64,8.055z"/>
	<path d="M21.889,17.059c-1.158-2.974-3.742-4.202-3.776-4.218l-0.601-0.22l2.118,4.482l-2.916,0.833l1.319,1.661l-1.687,1.961
		c-0.39,0.153-0.789,0.287-1.197,0.399l2.045-2.377l-1.588-2l3.114-0.89l-2.073-4.387l-0.956-0.35l-0.287-0.169l-0.49,0.837
		l0.271,0.158c-0.785,1.021-1.965,1.621-3.237,1.621c-1.283,0-2.466-0.578-3.252-1.566l0.343-0.178l-0.457-0.855l-0.279,0.149
		L7.355,12.3L5.28,16.691l3.114,0.89l-1.588,2l2.045,2.377c-0.408-0.112-0.807-0.246-1.196-0.399l-1.688-1.961l1.319-1.661
		l-2.916-0.833l2.119-4.485l-0.566,0.208l-0.036,0.015c-0.035,0.016-2.62,1.244-3.777,4.218c-0.236,0.607-0.412,1.288-0.496,2.046
		c1.977,2.394,4.767,4.089,7.946,4.671c0.322,0.06,0.647,0.108,0.977,0.145C11.019,23.972,11.506,24,12,24s0.981-0.028,1.461-0.08
		c0.33-0.036,0.654-0.085,0.977-0.145c3.179-0.582,5.97-2.277,7.946-4.671C22.301,18.347,22.125,17.666,21.889,17.059z M12,22.385
		c-0.347,0-0.69-0.019-1.03-0.048l-2.743-9.05c0.909,1.113,2.259,1.762,3.72,1.762c1.466,0,2.825-0.684,3.732-1.851l-2.772,9.148
		C12.607,22.369,12.306,22.385,12,22.385z"/>
</g>
</svg>
